<svg width="387" height="476" viewBox="0 0 387 476" fill="none" xmlns="http://www.w3.org/2000/svg"><g clip-path="url(#clip0_151_164)"><mask id="mask0_151_164" style="mask-type:luminance" maskUnits="userSpaceOnUse" x="0" y="0" width="387" height="476"><path d="M387 0H0V476H387V0Z" fill="white"/></mask><g mask="url(#mask0_151_164)"><mask id="mask1_151_164" style="mask-type:luminance" maskUnits="userSpaceOnUse" x="0" y="0" width="387" height="476"><path d="M387 0H0V476H387V0Z" fill="white"/></mask><g mask="url(#mask1_151_164)"><path d="M0 16C0 7.2 7.2 0 16 0H371C379.8 0 387 7.2 387 16V263H0V16Z" fill="url(#paint0_linear_151_164)"/><path fill-rule="evenodd" clip-rule="evenodd" d="M0 263H387V460C387 468.8 379.8 476 371 476H16C7.2 476 0 468.8 0 460V263Z" fill="#01073A"/><path d="M93.1002 53.6C95.8002 49.3 97.8002 45.4 100.5 42C107.3 33.1 115.7 33.1 122.5 42C130 51.7 133.1 63.3 135.8 75C136.3 77.1 136.7 79.3 137.4 82.3C139.6 78.6 141.1 75.6 143.1 72.9C147.4 67.2 153.2 66.7 156.7 72.8C160.6 79.6 162.7 87.5 165.5 95C165.7 95.6 165.8 96.2 166.1 97.8C167.2 96 167.9 94.9 168.7 93.8C172.2 88.6 176.8 88.4 179.1 94.1C181.8 100.9 183.6 108.1 184.6 115.3C186.2 126.6 185.1 137.9 181.5 148.8C181.1 150 180.9 151.5 180.1 152.4C178.3 154.4 176.3 157.3 174.2 157.5C172.3 157.6 170.1 154.6 168.1 152.8C167.5 152.3 167.3 151.4 166.4 150C165 154.8 164.2 159.1 162.6 163C160.8 167.3 158.8 171.8 156 175.5C152.4 180.2 147.8 180 143.9 175.4C141.6 172.7 140 169.4 137.8 166C136.1 172.6 135.1 179.1 132.8 185.1C129.9 192.7 126.8 200.5 122.3 207.1C115.9 216.6 107.1 216.2 100.2 207C97.6001 203.5 95.6002 199.5 93.1002 195.5C90.8002 201.4 89.1002 207.3 86.3002 212.6C82.7002 219.5 78.8002 226.5 73.9002 232.5C62.6002 246.1 47.6002 245.8 36.0002 232.5C26.6002 221.8 21.1002 209 17.4002 195.5C3.70014 145.3 3.90014 95.2 19.7002 45.5C23.1002 34.7 28.2002 24.5 35.8002 15.9C47.7002 2.40003 62.4001 2.40003 74.2001 15.9C81.8001 24.6 86.5002 34.8 90.4002 45.5C91.4002 48 92.1002 50.5 93.1002 53.6Z" stroke="#BCC1F1" stroke-opacity="0.08" stroke-width="11"/><path d="M194 287H28C25.7909 287 24 288.791 24 291V313C24 315.209 25.7909 317 28 317H194C196.209 317 198 315.209 198 313V291C198 288.791 196.209 287 194 287Z" fill="#BDC2F3"/><path d="M52.38 309L48.22 298.8H50.44L53.84 308.06H52.86L56.22 298.8H58.36L54.22 309H52.38ZM64.192 309.2C63.1654 309.2 62.2587 308.973 61.472 308.52C60.6987 308.067 60.092 307.44 59.652 306.64C59.212 305.84 58.992 304.92 58.992 303.88C58.992 302.827 59.2054 301.907 59.632 301.12C60.072 300.32 60.6854 299.7 61.472 299.26C62.2587 298.82 63.1587 298.6 64.172 298.6C65.1587 298.6 66.012 298.813 66.732 299.24C67.4654 299.653 68.0254 300.233 68.412 300.98C68.812 301.727 69.012 302.613 69.012 303.64C69.012 303.8 69.0054 303.953 68.992 304.1C68.992 304.233 68.9787 304.373 68.952 304.52H60.392V302.96H67.492L66.972 303.58C66.972 302.487 66.7254 301.653 66.232 301.08C65.7387 300.507 65.052 300.22 64.172 300.22C63.2254 300.22 62.472 300.547 61.912 301.2C61.3654 301.84 61.092 302.733 61.092 303.88C61.092 305.04 61.3654 305.947 61.912 306.6C62.472 307.253 63.2454 307.58 64.232 307.58C64.832 307.58 65.352 307.46 65.792 307.22C66.232 306.967 66.5587 306.6 66.772 306.12H68.732C68.3987 307.08 67.832 307.833 67.032 308.38C66.2454 308.927 65.2987 309.2 64.192 309.2ZM76.3211 309.18C74.5878 309.18 73.2011 308.767 72.1611 307.94C71.1211 307.113 70.5144 305.933 70.3411 304.4H72.4011C72.5211 305.4 72.9211 306.16 73.6011 306.68C74.2811 307.2 75.2011 307.46 76.3611 307.46C77.3344 307.46 78.0678 307.28 78.5611 306.92C79.0678 306.56 79.3211 306.047 79.3211 305.38C79.3211 304.78 79.1544 304.307 78.8211 303.96C78.4878 303.6 77.9611 303.307 77.2411 303.08L74.7411 302.28C73.4611 301.867 72.5211 301.347 71.9211 300.72C71.3211 300.093 71.0211 299.3 71.0211 298.34C71.0211 297.527 71.2211 296.827 71.6211 296.24C72.0344 295.653 72.6078 295.2 73.3411 294.88C74.0878 294.547 74.9544 294.38 75.9411 294.38C77.4611 294.38 78.6744 294.767 79.5811 295.54C80.5011 296.3 81.0278 297.36 81.1611 298.72H79.1011C78.9411 297.813 78.5944 297.153 78.0611 296.74C77.5278 296.313 76.7944 296.1 75.8611 296.1C74.9811 296.1 74.2944 296.273 73.8011 296.62C73.3078 296.967 73.0611 297.453 73.0611 298.08C73.0611 298.587 73.2211 299.013 73.5411 299.36C73.8744 299.693 74.4211 299.98 75.1811 300.22L77.8011 301.06C79.0144 301.447 79.9078 301.973 80.4811 302.64C81.0678 303.307 81.3611 304.147 81.3611 305.16C81.3611 306.44 80.9211 307.433 80.0411 308.14C79.1611 308.833 77.9211 309.18 76.3211 309.18ZM83.562 309V294.6H85.682V309H83.562ZM97.9602 309L93.5202 302.4L88.1202 294.6H90.6002L94.8002 300.84L100.44 309H97.9602ZM93.8002 300.86L98.1602 294.6H100.44L94.7402 302.6L93.8002 300.86ZM94.4602 302.68L90.0802 309H87.8002L93.5402 300.94L94.4602 302.68ZM107.951 309L109.951 294.6H111.751L109.751 309H107.951ZM112.771 309L114.771 294.6H116.571L114.571 309H112.771ZM106.331 298.56H118.711V300.28H106.331V298.56ZM105.831 303.12H118.211V304.84H105.831V303.12Z" fill="#01073A"/><path d="M24.512 349L28.848 337.48H30.32L26.176 349H24.512ZM33.424 349L29.28 337.48H30.832L35.184 349H33.424ZM26.704 344.408H32.88V345.816H26.704V344.408ZM36.8711 349V340.84H38.4551V342.76H38.5351V349H36.8711ZM42.3751 349V343.672C42.3751 343.117 42.2471 342.712 41.9911 342.456C41.7351 342.2 41.3671 342.072 40.8871 342.072C40.4391 342.072 40.0338 342.179 39.6711 342.392C39.3191 342.595 39.0418 342.883 38.8391 343.256C38.6365 343.619 38.5351 344.051 38.5351 344.552L38.3271 342.648C38.5938 342.04 38.9938 341.56 39.5271 341.208C40.0711 340.856 40.6791 340.68 41.3511 340.68C42.1618 340.68 42.8071 340.915 43.2871 341.384C43.7778 341.853 44.0231 342.472 44.0231 343.24V349H42.3751ZM47.8791 349V343.672C47.8791 343.117 47.7458 342.712 47.4791 342.456C47.2231 342.2 46.8551 342.072 46.3751 342.072C45.9378 342.072 45.5378 342.179 45.1751 342.392C44.8231 342.595 44.5405 342.883 44.3271 343.256C44.1245 343.619 44.0231 344.051 44.0231 344.552L43.6871 342.648C43.9645 342.04 44.3805 341.56 44.9351 341.208C45.5005 340.856 46.1298 340.68 46.8231 340.68C47.6445 340.68 48.3005 340.92 48.7911 341.4C49.2818 341.869 49.5271 342.499 49.5271 343.288V349H47.8791ZM55.3138 349.16C54.4818 349.16 53.7511 348.979 53.1218 348.616C52.4924 348.243 52.0018 347.736 51.6497 347.096C51.2977 346.445 51.1217 345.709 51.1217 344.888C51.1217 344.056 51.2977 343.325 51.6497 342.696C52.0124 342.067 52.5031 341.576 53.1218 341.224C53.7511 340.861 54.4818 340.68 55.3138 340.68C56.1564 340.68 56.8924 340.861 57.5218 341.224C58.1511 341.576 58.6364 342.067 58.9778 342.696C59.3298 343.325 59.5058 344.056 59.5058 344.888C59.5058 345.709 59.3298 346.445 58.9778 347.096C58.6364 347.736 58.1511 348.243 57.5218 348.616C56.8924 348.979 56.1564 349.16 55.3138 349.16ZM55.3138 347.8C55.8151 347.8 56.2471 347.677 56.6098 347.432C56.9831 347.187 57.2764 346.845 57.4898 346.408C57.7031 345.971 57.8098 345.459 57.8098 344.872C57.8098 343.997 57.5751 343.309 57.1058 342.808C56.6471 342.296 56.0498 342.04 55.3138 342.04C54.5884 342.04 53.9911 342.296 53.5218 342.808C53.0631 343.32 52.8338 344.008 52.8338 344.872C52.8338 345.459 52.9351 345.971 53.1378 346.408C53.3511 346.845 53.6444 347.187 54.0178 347.432C54.4018 347.677 54.8338 347.8 55.3138 347.8ZM63.8709 349.16C63.3269 349.16 62.8469 349.048 62.4309 348.824C62.0149 348.589 61.6895 348.269 61.4549 347.864C61.2309 347.459 61.1189 346.995 61.1189 346.472V340.84H62.7829V346.088C62.7829 346.653 62.9215 347.075 63.1989 347.352C63.4762 347.629 63.8709 347.768 64.3829 347.768C64.8415 347.768 65.2469 347.661 65.5989 347.448C65.9615 347.235 66.2442 346.941 66.4469 346.568C66.6602 346.184 66.7669 345.741 66.7669 345.24L66.9749 347.192C66.7082 347.789 66.2975 348.269 65.7429 348.632C65.1989 348.984 64.5749 349.16 63.8709 349.16ZM66.8309 349V347.08H66.7669V340.84H68.4149V349H66.8309ZM70.7461 349V340.84H72.3301V342.76H72.4101V349H70.7461ZM76.5381 349V343.752C76.5381 343.187 76.3941 342.765 76.1061 342.488C75.8288 342.211 75.4128 342.072 74.8581 342.072C74.3781 342.072 73.9515 342.179 73.5781 342.392C73.2155 342.605 72.9275 342.899 72.7141 343.272C72.5115 343.645 72.4101 344.088 72.4101 344.6L72.2021 342.648C72.4688 342.04 72.8795 341.56 73.4341 341.208C73.9888 340.856 74.6341 340.68 75.3701 340.68C76.2448 340.68 76.9328 340.925 77.4341 341.416C77.9355 341.907 78.1861 342.557 78.1861 343.368V349H76.5381ZM83.6556 349.16C82.7063 349.16 82.0076 348.941 81.5596 348.504C81.1223 348.056 80.9036 347.4 80.9036 346.536V338.968L82.5516 338.344V346.552C82.5516 346.979 82.6636 347.293 82.8876 347.496C83.1116 347.699 83.4743 347.8 83.9756 347.8C84.1676 347.8 84.3383 347.784 84.4876 347.752C84.637 347.72 84.765 347.683 84.8716 347.64V348.984C84.7543 349.037 84.589 349.08 84.3756 349.112C84.1623 349.144 83.9223 349.16 83.6556 349.16ZM79.2716 342.168V340.84H84.8716V342.168H79.2716ZM89.6215 349V337.48H91.3175V349H89.6215ZM90.4535 349V347.608H97.1095V349H90.4535ZM101.876 349.16C101.044 349.16 100.314 348.979 99.6843 348.616C99.0549 348.243 98.5643 347.736 98.2122 347.096C97.8602 346.445 97.6842 345.709 97.6842 344.888C97.6842 344.056 97.8602 343.325 98.2122 342.696C98.5749 342.067 99.0656 341.576 99.6843 341.224C100.314 340.861 101.044 340.68 101.876 340.68C102.719 340.68 103.455 340.861 104.084 341.224C104.714 341.576 105.199 342.067 105.54 342.696C105.892 343.325 106.068 344.056 106.068 344.888C106.068 345.709 105.892 346.445 105.54 347.096C105.199 347.736 104.714 348.243 104.084 348.616C103.455 348.979 102.719 349.16 101.876 349.16ZM101.876 347.8C102.378 347.8 102.81 347.677 103.172 347.432C103.546 347.187 103.839 346.845 104.052 346.408C104.266 345.971 104.372 345.459 104.372 344.872C104.372 343.997 104.138 343.309 103.668 342.808C103.21 342.296 102.612 342.04 101.876 342.04C101.151 342.04 100.554 342.296 100.084 342.808C99.6256 343.32 99.3963 344.008 99.3963 344.872C99.3963 345.459 99.4976 345.971 99.7003 346.408C99.9136 346.845 100.207 347.187 100.58 347.432C100.964 347.677 101.396 347.8 101.876 347.8ZM111.169 349.16C110.391 349.16 109.697 348.979 109.089 348.616C108.481 348.243 108.001 347.736 107.649 347.096C107.308 346.456 107.137 345.725 107.137 344.904C107.137 344.083 107.308 343.357 107.649 342.728C108.001 342.088 108.481 341.587 109.089 341.224C109.697 340.861 110.385 340.68 111.153 340.68C111.804 340.68 112.385 340.803 112.897 341.048C113.409 341.293 113.831 341.635 114.161 342.072C114.492 342.509 114.705 343.027 114.801 343.624H113.233C113.127 343.144 112.892 342.76 112.529 342.472C112.177 342.184 111.729 342.04 111.185 342.04C110.716 342.04 110.305 342.157 109.953 342.392C109.601 342.627 109.329 342.957 109.137 343.384C108.945 343.811 108.849 344.317 108.849 344.904C108.849 345.48 108.945 345.987 109.137 346.424C109.329 346.861 109.601 347.203 109.953 347.448C110.305 347.683 110.721 347.8 111.201 347.8C111.724 347.8 112.167 347.661 112.529 347.384C112.903 347.096 113.143 346.712 113.249 346.232H114.817C114.711 346.819 114.487 347.331 114.145 347.768C113.815 348.205 113.393 348.547 112.881 348.792C112.369 349.037 111.799 349.16 111.169 349.16ZM116.465 349V337.272H118.129V349H116.465ZM121.761 349L117.745 344.76L121.633 340.84H123.729L119.313 345.128L119.393 344.376L123.889 349H121.761ZM128.204 349.16C127.382 349.16 126.657 348.979 126.028 348.616C125.409 348.253 124.924 347.752 124.572 347.112C124.22 346.472 124.044 345.736 124.044 344.904C124.044 344.061 124.214 343.325 124.556 342.696C124.908 342.056 125.398 341.56 126.028 341.208C126.657 340.856 127.377 340.68 128.188 340.68C128.977 340.68 129.66 340.851 130.236 341.192C130.822 341.523 131.27 341.987 131.58 342.584C131.9 343.181 132.06 343.891 132.06 344.712C132.06 344.84 132.054 344.963 132.044 345.08C132.044 345.187 132.033 345.299 132.012 345.416H125.164V344.168H130.844L130.428 344.664C130.428 343.789 130.23 343.123 129.836 342.664C129.441 342.205 128.892 341.976 128.188 341.976C127.43 341.976 126.828 342.237 126.38 342.76C125.942 343.272 125.724 343.987 125.724 344.904C125.724 345.832 125.942 346.557 126.38 347.08C126.828 347.603 127.446 347.864 128.236 347.864C128.716 347.864 129.132 347.768 129.484 347.576C129.836 347.373 130.097 347.08 130.268 346.696H131.836C131.569 347.464 131.116 348.067 130.476 348.504C129.846 348.941 129.089 349.16 128.204 349.16ZM139.697 349V347.128L139.857 347.176C139.686 347.784 139.334 348.269 138.801 348.632C138.267 348.984 137.627 349.16 136.881 349.16C136.145 349.16 135.499 348.984 134.945 348.632C134.401 348.28 133.974 347.789 133.665 347.16C133.366 346.531 133.217 345.795 133.217 344.952C133.217 344.099 133.371 343.352 133.681 342.712C133.99 342.072 134.422 341.576 134.977 341.224C135.531 340.872 136.182 340.696 136.929 340.696C137.707 340.696 138.347 340.883 138.849 341.256C139.361 341.619 139.697 342.131 139.857 342.792L139.633 342.824V337.48H141.281V349H139.697ZM137.297 347.768C138.033 347.768 138.614 347.517 139.041 347.016C139.467 346.504 139.681 345.8 139.681 344.904C139.681 344.029 139.462 343.341 139.025 342.84C138.598 342.328 138.017 342.072 137.281 342.072C136.555 342.072 135.979 342.328 135.553 342.84C135.137 343.341 134.929 344.045 134.929 344.952C134.929 345.837 135.137 346.531 135.553 347.032C135.979 347.523 136.561 347.768 137.297 347.768Z" fill="#BDC2F3"/><path d="M210.504 349L207.176 340.84H208.952L211.672 348.248H210.888L213.576 340.84H215.288L211.976 349H210.504ZM219.954 349.16C219.132 349.16 218.407 348.979 217.778 348.616C217.159 348.253 216.674 347.752 216.322 347.112C215.97 346.472 215.794 345.736 215.794 344.904C215.794 344.061 215.964 343.325 216.306 342.696C216.658 342.056 217.148 341.56 217.778 341.208C218.407 340.856 219.127 340.68 219.938 340.68C220.727 340.68 221.41 340.851 221.986 341.192C222.572 341.523 223.02 341.987 223.33 342.584C223.65 343.181 223.81 343.891 223.81 344.712C223.81 344.84 223.804 344.963 223.794 345.08C223.794 345.187 223.783 345.299 223.762 345.416H216.914V344.168H222.594L222.178 344.664C222.178 343.789 221.98 343.123 221.586 342.664C221.191 342.205 220.642 341.976 219.938 341.976C219.18 341.976 218.578 342.237 218.13 342.76C217.692 343.272 217.474 343.987 217.474 344.904C217.474 345.832 217.692 346.557 218.13 347.08C218.578 347.603 219.196 347.864 219.986 347.864C220.466 347.864 220.882 347.768 221.234 347.576C221.586 347.373 221.847 347.08 222.018 346.696H223.586C223.319 347.464 222.866 348.067 222.226 348.504C221.596 348.941 220.839 349.16 219.954 349.16ZM229.657 349.144C228.27 349.144 227.161 348.813 226.329 348.152C225.497 347.491 225.012 346.547 224.873 345.32H226.521C226.617 346.12 226.937 346.728 227.481 347.144C228.025 347.56 228.761 347.768 229.689 347.768C230.468 347.768 231.054 347.624 231.449 347.336C231.854 347.048 232.057 346.637 232.057 346.104C232.057 345.624 231.924 345.245 231.657 344.968C231.39 344.68 230.969 344.445 230.393 344.264L228.393 343.624C227.369 343.293 226.617 342.877 226.137 342.376C225.657 341.875 225.417 341.24 225.417 340.472C225.417 339.821 225.577 339.261 225.897 338.792C226.228 338.323 226.686 337.96 227.273 337.704C227.87 337.437 228.564 337.304 229.353 337.304C230.569 337.304 231.54 337.613 232.265 338.232C233.001 338.84 233.422 339.688 233.529 340.776H231.881C231.753 340.051 231.476 339.523 231.049 339.192C230.622 338.851 230.036 338.68 229.289 338.68C228.585 338.68 228.036 338.819 227.641 339.096C227.246 339.373 227.049 339.763 227.049 340.264C227.049 340.669 227.177 341.011 227.433 341.288C227.7 341.555 228.137 341.784 228.745 341.976L230.841 342.648C231.812 342.957 232.526 343.379 232.985 343.912C233.454 344.445 233.689 345.117 233.689 345.928C233.689 346.952 233.337 347.747 232.633 348.312C231.929 348.867 230.937 349.144 229.657 349.144ZM235.45 349V337.48H237.146V349H235.45ZM246.968 349L243.416 343.72L239.096 337.48H241.08L244.44 342.472L248.952 349H246.968ZM243.64 342.488L247.128 337.48H248.952L244.392 343.88L243.64 342.488ZM244.168 343.944L240.664 349H238.84L243.432 342.552L244.168 343.944ZM253.825 349V337.48H258.705C259.537 337.48 260.246 337.619 260.833 337.896C261.419 338.173 261.867 338.568 262.177 339.08C262.497 339.592 262.657 340.2 262.657 340.904C262.657 341.619 262.497 342.237 262.177 342.76C261.867 343.272 261.414 343.672 260.817 343.96C260.23 344.248 259.526 344.392 258.705 344.392H255.121V342.984H258.625C259.382 342.984 259.958 342.803 260.353 342.44C260.758 342.077 260.961 341.571 260.961 340.92C260.961 340.259 260.763 339.752 260.369 339.4C259.974 339.048 259.393 338.872 258.625 338.872H255.521V349H253.825ZM267.486 349.16C266.654 349.16 265.923 348.979 265.294 348.616C264.664 348.243 264.174 347.736 263.822 347.096C263.47 346.445 263.294 345.709 263.294 344.888C263.294 344.056 263.47 343.325 263.822 342.696C264.184 342.067 264.675 341.576 265.294 341.224C265.923 340.861 266.654 340.68 267.486 340.68C268.328 340.68 269.064 340.861 269.694 341.224C270.323 341.576 270.808 342.067 271.15 342.696C271.502 343.325 271.678 344.056 271.678 344.888C271.678 345.709 271.502 346.445 271.15 347.096C270.808 347.736 270.323 348.243 269.694 348.616C269.064 348.979 268.328 349.16 267.486 349.16ZM267.486 347.8C267.987 347.8 268.419 347.677 268.782 347.432C269.155 347.187 269.448 346.845 269.662 346.408C269.875 345.971 269.982 345.459 269.982 344.872C269.982 343.997 269.747 343.309 269.278 342.808C268.819 342.296 268.222 342.04 267.486 342.04C266.76 342.04 266.163 342.296 265.694 342.808C265.235 343.32 265.006 344.008 265.006 344.872C265.006 345.459 265.107 345.971 265.31 346.408C265.523 346.845 265.816 347.187 266.19 347.432C266.574 347.677 267.006 347.8 267.486 347.8ZM274.895 349L272.399 340.84H274.111L275.807 347.4H275.567L277.631 340.84H279.071L281.135 347.4H280.911L282.591 340.84H284.223L281.727 349H280.271L278.207 342.552H278.447L276.351 349H274.895ZM289.094 349.16C288.273 349.16 287.548 348.979 286.918 348.616C286.3 348.253 285.814 347.752 285.462 347.112C285.11 346.472 284.934 345.736 284.934 344.904C284.934 344.061 285.105 343.325 285.446 342.696C285.798 342.056 286.289 341.56 286.918 341.208C287.548 340.856 288.268 340.68 289.078 340.68C289.868 340.68 290.55 340.851 291.126 341.192C291.713 341.523 292.161 341.987 292.47 342.584C292.79 343.181 292.95 343.891 292.95 344.712C292.95 344.84 292.945 344.963 292.934 345.08C292.934 345.187 292.924 345.299 292.902 345.416H286.054V344.168H291.734L291.318 344.664C291.318 343.789 291.121 343.123 290.726 342.664C290.332 342.205 289.782 341.976 289.078 341.976C288.321 341.976 287.718 342.237 287.27 342.76C286.833 343.272 286.614 343.987 286.614 344.904C286.614 345.832 286.833 346.557 287.27 347.08C287.718 347.603 288.337 347.864 289.126 347.864C289.606 347.864 290.022 347.768 290.374 347.576C290.726 347.373 290.988 347.08 291.158 346.696H292.726C292.46 347.464 292.006 348.067 291.366 348.504C290.737 348.941 289.98 349.16 289.094 349.16ZM294.652 349V340.84H296.236V342.872H296.316V349H294.652ZM296.316 344.744L296.108 342.808C296.3 342.115 296.631 341.587 297.1 341.224C297.57 340.861 298.13 340.68 298.78 340.68C299.026 340.68 299.196 340.701 299.292 340.744V342.312C299.239 342.291 299.164 342.28 299.068 342.28C298.972 342.269 298.855 342.264 298.716 342.264C297.916 342.264 297.314 342.472 296.908 342.888C296.514 343.304 296.316 343.923 296.316 344.744Z" fill="#BDC2F3"/><path d="M25.184 451V439.48H26.88V451H25.184ZM26.016 451V449.608H33.184V451H26.016ZM26.016 445.736V444.344H32.608V445.736H26.016ZM26.016 440.872V439.48H33.04V440.872H26.016ZM40.4864 451L37.8784 447.272L34.5664 442.84H36.4544L38.8384 446.248L42.3744 451H40.4864ZM37.9904 446.248L40.4224 442.84H42.2464L38.8224 447.384L37.9904 446.248ZM38.6624 447.432L36.0384 451H34.1984L37.8624 446.264L38.6624 447.432ZM48.3638 451.144C47.5958 451.144 46.9558 450.963 46.4438 450.6C45.9424 450.227 45.6118 449.709 45.4518 449.048L45.6758 449.016V454.28H44.0118V442.84H45.5958V444.712L45.4358 444.664C45.6064 444.045 45.9691 443.56 46.5238 443.208C47.0784 442.856 47.7291 442.68 48.4758 442.68C49.2118 442.68 49.8464 442.856 50.3798 443.208C50.9238 443.56 51.3398 444.051 51.6278 444.68C51.9264 445.309 52.0758 446.045 52.0758 446.888C52.0758 447.741 51.9211 448.488 51.6118 449.128C51.3024 449.768 50.8704 450.264 50.3158 450.616C49.7611 450.968 49.1104 451.144 48.3638 451.144ZM48.0118 449.768C48.7371 449.768 49.3131 449.512 49.7398 449C50.1664 448.488 50.3798 447.784 50.3798 446.888C50.3798 446.003 50.1664 445.315 49.7398 444.824C49.3131 444.323 48.7318 444.072 47.9958 444.072C47.2704 444.072 46.6891 444.328 46.2518 444.84C45.8251 445.341 45.6118 446.04 45.6118 446.936C45.6118 447.811 45.8251 448.504 46.2518 449.016C46.6891 449.517 47.2758 449.768 48.0118 449.768ZM53.7774 451V442.84H55.4414V451H53.7774ZM53.6974 441.24V439.368H55.5374V441.24H53.6974ZM57.7774 451V442.84H59.3614V444.872H59.4414V451H57.7774ZM59.4414 446.744L59.2334 444.808C59.4254 444.115 59.756 443.587 60.2254 443.224C60.6947 442.861 61.2547 442.68 61.9054 442.68C62.1507 442.68 62.3214 442.701 62.4174 442.744V444.312C62.364 444.291 62.2894 444.28 62.1934 444.28C62.0974 444.269 61.98 444.264 61.8414 444.264C61.0414 444.264 60.4387 444.472 60.0334 444.888C59.6387 445.304 59.4414 445.923 59.4414 446.744ZM67.188 451.16C66.3667 451.16 65.6413 450.979 65.012 450.616C64.3933 450.253 63.908 449.752 63.556 449.112C63.204 448.472 63.028 447.736 63.028 446.904C63.028 446.061 63.1987 445.325 63.54 444.696C63.892 444.056 64.3827 443.56 65.012 443.208C65.6413 442.856 66.3613 442.68 67.172 442.68C67.9613 442.68 68.644 442.851 69.22 443.192C69.8067 443.523 70.2547 443.987 70.564 444.584C70.884 445.181 71.044 445.891 71.044 446.712C71.044 446.84 71.0387 446.963 71.028 447.08C71.028 447.187 71.0173 447.299 70.996 447.416H64.148V446.168H69.828L69.412 446.664C69.412 445.789 69.2147 445.123 68.82 444.664C68.4253 444.205 67.876 443.976 67.172 443.976C66.4147 443.976 65.812 444.237 65.364 444.76C64.9267 445.272 64.708 445.987 64.708 446.904C64.708 447.832 64.9267 448.557 65.364 449.08C65.812 449.603 66.4307 449.864 67.22 449.864C67.7 449.864 68.116 449.768 68.468 449.576C68.82 449.373 69.0813 449.08 69.252 448.696H70.82C70.5533 449.464 70.1 450.067 69.46 450.504C68.8307 450.941 68.0733 451.16 67.188 451.16ZM75.7214 451.16C74.6547 451.16 73.8067 450.925 73.1774 450.456C72.548 449.987 72.1907 449.325 72.1054 448.472H73.6414C73.716 448.941 73.9294 449.304 74.2814 449.56C74.644 449.805 75.1347 449.928 75.7534 449.928C76.2974 449.928 76.7134 449.832 77.0014 449.64C77.2894 449.448 77.4334 449.176 77.4334 448.824C77.4334 448.568 77.348 448.355 77.1774 448.184C77.0174 448.003 76.6974 447.853 76.2174 447.736L74.9054 447.432C74.084 447.229 73.4707 446.931 73.0654 446.536C72.6707 446.131 72.4734 445.635 72.4734 445.048C72.4734 444.312 72.7454 443.736 73.2894 443.32C73.844 442.893 74.6014 442.68 75.5614 442.68C76.5107 442.68 77.2734 442.893 77.8494 443.32C78.436 443.747 78.7667 444.344 78.8414 445.112H77.3054C77.2414 444.728 77.0547 444.435 76.7454 444.232C76.4467 444.019 76.036 443.912 75.5134 443.912C75.0227 443.912 74.644 444.003 74.3774 444.184C74.1214 444.355 73.9934 444.595 73.9934 444.904C73.9934 445.16 74.0894 445.373 74.2814 445.544C74.484 445.715 74.8147 445.859 75.2734 445.976L76.6174 446.312C77.396 446.504 77.9827 446.819 78.3774 447.256C78.772 447.683 78.9694 448.2 78.9694 448.808C78.9694 449.544 78.6814 450.12 78.1054 450.536C77.54 450.952 76.7454 451.16 75.7214 451.16Z" fill="#BDC2F3"/><path d="M67.2 150C73.9379 150 79.4 136.345 79.4 119.5C79.4 102.655 73.9379 89 67.2 89C60.4621 89 55 102.655 55 119.5C55 136.345 60.4621 150 67.2 150Z" fill="#BDC2F3"/><path d="M81.7553 142.619C85.9195 142.619 89.2953 132.323 89.2953 119.622C89.2953 106.921 85.9195 96.625 81.7553 96.625C77.5911 96.625 74.2153 106.921 74.2153 119.622C74.2153 132.323 77.5911 142.619 81.7553 142.619Z" fill="#BDC2F3"/><path d="M91.6854 133.591C94.259 133.591 96.3454 127.228 96.3454 119.378C96.3454 111.528 94.259 105.165 91.6854 105.165C89.1118 105.165 87.0254 111.528 87.0254 119.378C87.0254 127.228 89.1118 133.591 91.6854 133.591Z" fill="#BDC2F3"/><path d="M97.8356 128.223C99.4262 128.223 100.716 124.29 100.716 119.439C100.716 114.588 99.4262 110.655 97.8356 110.655C96.245 110.655 94.9556 114.588 94.9556 119.439C94.9556 124.29 96.245 128.223 97.8356 128.223Z" fill="#BDC2F3"/><path d="M125.384 133.851C122.001 133.851 119.294 133.045 117.264 131.431C115.234 129.817 114.049 127.514 113.711 124.521H117.732C117.966 126.473 118.747 127.956 120.075 128.971C121.402 129.986 123.198 130.494 125.462 130.494C127.362 130.494 128.794 130.143 129.757 129.44C130.746 128.737 131.24 127.735 131.24 126.434C131.24 125.263 130.915 124.339 130.264 123.662C129.613 122.959 128.585 122.387 127.18 121.944L122.3 120.383C119.801 119.576 117.966 118.561 116.795 117.337C115.624 116.114 115.038 114.566 115.038 112.692C115.038 111.104 115.429 109.738 116.21 108.592C117.016 107.447 118.136 106.562 119.567 105.938C121.025 105.287 122.716 104.962 124.642 104.962C127.609 104.962 129.978 105.717 131.748 107.226C133.543 108.71 134.571 110.779 134.832 113.433H130.811C130.498 111.664 129.822 110.375 128.781 109.568C127.739 108.736 126.308 108.319 124.486 108.319C122.768 108.319 121.428 108.658 120.465 109.334C119.502 110.011 119.021 110.961 119.021 112.184C119.021 113.173 119.333 114.006 119.958 114.683C120.608 115.333 121.675 115.893 123.159 116.361L128.273 118.001C130.641 118.756 132.385 119.784 133.504 121.085C134.65 122.387 135.222 124.026 135.222 126.004C135.222 128.503 134.363 130.442 132.646 131.821C130.928 133.175 128.507 133.851 125.384 133.851ZM148.07 133.89C146.04 133.89 144.257 133.448 142.721 132.563C141.186 131.652 139.989 130.416 139.13 128.854C138.271 127.267 137.841 125.471 137.841 123.467C137.841 121.437 138.271 119.654 139.13 118.118C140.015 116.583 141.212 115.385 142.721 114.527C144.257 113.642 146.04 113.199 148.07 113.199C150.126 113.199 151.922 113.642 153.457 114.527C154.993 115.385 156.177 116.583 157.01 118.118C157.869 119.654 158.298 121.437 158.298 123.467C158.298 125.471 157.869 127.267 157.01 128.854C156.177 130.416 154.993 131.652 153.457 132.563C151.922 133.448 150.126 133.89 148.07 133.89ZM148.07 130.572C149.293 130.572 150.347 130.273 151.232 129.674C152.143 129.075 152.859 128.243 153.379 127.176C153.9 126.108 154.16 124.859 154.16 123.428C154.16 121.293 153.588 119.615 152.442 118.392C151.323 117.142 149.866 116.518 148.07 116.518C146.3 116.518 144.843 117.142 143.697 118.392C142.578 119.641 142.019 121.32 142.019 123.428C142.019 124.859 142.266 126.108 142.761 127.176C143.281 128.243 143.997 129.075 144.908 129.674C145.845 130.273 146.899 130.572 148.07 130.572ZM162.469 133.5V113.59H166.334V118.274H166.529V133.5H162.469ZM176.601 133.5V120.695C176.601 119.315 176.25 118.287 175.547 117.611C174.87 116.934 173.855 116.596 172.502 116.596C171.331 116.596 170.29 116.856 169.379 117.376C168.494 117.897 167.791 118.613 167.271 119.524C166.776 120.435 166.529 121.515 166.529 122.764L166.021 118.001C166.672 116.518 167.674 115.346 169.027 114.488C170.381 113.629 171.955 113.199 173.751 113.199C175.885 113.199 177.564 113.798 178.787 114.995C180.011 116.192 180.622 117.78 180.622 119.758V133.5H176.601ZM186.068 133.5V113.59H190.128V133.5H186.068ZM185.873 109.686V105.118H190.362V109.686H185.873ZM204.028 133.89C202.128 133.89 200.437 133.448 198.953 132.563C197.47 131.652 196.298 130.416 195.44 128.854C194.607 127.293 194.19 125.51 194.19 123.506C194.19 121.502 194.607 119.732 195.44 118.196C196.298 116.635 197.47 115.411 198.953 114.527C200.437 113.642 202.115 113.199 203.989 113.199C205.577 113.199 206.995 113.499 208.245 114.097C209.494 114.696 210.522 115.529 211.329 116.596C212.136 117.663 212.656 118.925 212.89 120.383H209.064C208.804 119.211 208.232 118.274 207.347 117.572C206.488 116.869 205.395 116.518 204.067 116.518C202.922 116.518 201.92 116.804 201.061 117.376C200.202 117.949 199.539 118.756 199.07 119.797C198.602 120.838 198.368 122.074 198.368 123.506C198.368 124.911 198.602 126.147 199.07 127.215C199.539 128.282 200.202 129.115 201.061 129.713C201.92 130.286 202.935 130.572 204.106 130.572C205.382 130.572 206.462 130.234 207.347 129.557C208.258 128.854 208.843 127.917 209.104 126.746H212.929C212.669 128.178 212.123 129.427 211.29 130.494C210.483 131.561 209.455 132.394 208.206 132.992C206.956 133.591 205.564 133.89 204.028 133.89ZM224.69 133.5V105.391H228.828V133.5H224.69ZM234.563 133.5V113.59H238.428V118.274H238.623V133.5H234.563ZM248.696 133.5V120.695C248.696 119.315 248.344 118.287 247.641 117.611C246.965 116.934 245.95 116.596 244.596 116.596C243.425 116.596 242.384 116.856 241.473 117.376C240.588 117.897 239.886 118.613 239.365 119.524C238.87 120.435 238.623 121.515 238.623 122.764L238.116 118.001C238.766 116.518 239.768 115.346 241.122 114.488C242.475 113.629 244.05 113.199 245.846 113.199C247.98 113.199 249.659 113.798 250.882 114.995C252.105 116.192 252.717 117.78 252.717 119.758V133.5H248.696ZM272.605 133.5V128.932L272.996 129.049C272.579 130.533 271.721 131.717 270.419 132.602C269.118 133.461 267.556 133.89 265.734 133.89C263.939 133.89 262.364 133.461 261.011 132.602C259.683 131.743 258.642 130.546 257.887 129.01C257.159 127.475 256.794 125.679 256.794 123.623C256.794 121.541 257.172 119.719 257.926 118.157C258.681 116.596 259.735 115.385 261.089 114.527C262.442 113.668 264.03 113.238 265.851 113.238C267.751 113.238 269.313 113.694 270.536 114.605C271.786 115.49 272.605 116.739 272.996 118.352L272.449 118.431V105.391H276.47V133.5H272.605ZM266.749 130.494C268.545 130.494 269.964 129.882 271.005 128.659C272.046 127.41 272.566 125.692 272.566 123.506C272.566 121.372 272.033 119.693 270.966 118.47C269.925 117.22 268.506 116.596 266.71 116.596C264.941 116.596 263.535 117.22 262.494 118.47C261.479 119.693 260.971 121.411 260.971 123.623C260.971 125.783 261.479 127.475 262.494 128.698C263.535 129.895 264.954 130.494 266.749 130.494ZM290.77 133.89C288.766 133.89 286.996 133.448 285.461 132.563C283.951 131.678 282.767 130.455 281.908 128.893C281.049 127.332 280.62 125.536 280.62 123.506C280.62 121.45 281.036 119.654 281.869 118.118C282.728 116.557 283.925 115.346 285.461 114.488C286.996 113.629 288.753 113.199 290.731 113.199C292.657 113.199 294.323 113.616 295.728 114.448C297.16 115.255 298.253 116.387 299.007 117.845C299.788 119.302 300.179 121.033 300.179 123.037C300.179 123.35 300.166 123.649 300.14 123.935C300.14 124.195 300.114 124.469 300.062 124.755H283.352V121.71H297.212L296.197 122.92C296.197 120.786 295.715 119.159 294.752 118.04C293.789 116.921 292.449 116.361 290.731 116.361C288.883 116.361 287.413 116.999 286.319 118.274C285.252 119.524 284.719 121.267 284.719 123.506C284.719 125.77 285.252 127.54 286.319 128.815C287.413 130.091 288.922 130.728 290.848 130.728C292.019 130.728 293.034 130.494 293.893 130.025C294.752 129.531 295.39 128.815 295.806 127.878H299.632C298.981 129.752 297.875 131.223 296.314 132.29C294.778 133.357 292.93 133.89 290.77 133.89ZM316.47 133.5L310.106 124.404L302.025 113.59H306.632L312.449 121.905L321.077 133.5H316.47ZM310.38 121.905L316.314 113.59H320.764L312.41 124.677L310.38 121.905ZM312.019 124.794L305.617 133.5H301.127L310.067 121.944L312.019 124.794Z" fill="#BDC2F3"/><mask id="mask2_151_164" style="mask-type:luminance" maskUnits="userSpaceOnUse" x="324" y="129" width="9" height="8"><path d="M332.211 129.66H324.891V136.98H332.211V129.66Z" fill="white"/></mask><g mask="url(#mask2_151_164)"><path d="M328.551 130.27C330.236 130.27 331.601 131.635 331.601 133.32C331.601 135.004 330.236 136.37 328.551 136.37C326.867 136.37 325.501 135.004 325.501 133.32C325.501 131.635 326.867 130.27 328.551 130.27ZM328.551 130.88C327.204 130.88 326.111 131.972 326.111 133.32C326.111 134.667 327.204 135.76 328.551 135.76C329.899 135.76 330.991 134.667 330.991 133.32C330.991 131.972 329.899 130.88 328.551 130.88ZM328.704 131.795C329.294 131.795 329.771 132.273 329.771 132.862C329.771 133.249 329.566 133.587 329.259 133.775L330.037 134.845H329.283L328.618 133.93H327.941V134.845H327.331V131.795H328.704ZM328.704 132.405H327.941V133.32H328.704C328.942 133.32 329.137 133.138 329.159 132.906L329.161 132.862C329.161 132.61 328.957 132.405 328.704 132.405Z" fill="#BDC2F3"/></g></g>
<text fill="#01073A" xml:space="preserve" style="white-space: pre" font-family="Instrument Sans" font-size="20" font-weight="500" letter-spacing="0em"><tspan x="119" y="309.4">12345</tspan></text>
<text fill="#BDC2F3" xml:space="preserve" style="white-space: pre" font-family="Instrument Sans" font-size="28" letter-spacing="0em"><tspan x="24" y="384.16">10</tspan></text>
<text fill="#BDC2F3" xml:space="preserve" style="white-space: pre" font-family="Instrument Sans" font-size="28" letter-spacing="0em"><tspan x="207" y="384.16">9.98</tspan></text>
<text fill="#BDC2F3" xml:space="preserve" style="white-space: pre" font-family="Instrument Sans" font-size="20" letter-spacing="0em"><tspan x="252" y="451.4">29/09/2028
</tspan></text></g></g><defs><linearGradient id="paint0_linear_151_164" x1="39.4129" y1="-17.9009" x2="349.354" y2="292.041" gradientUnits="userSpaceOnUse"><stop offset="0.0035606" stop-color="#BCC1F1"/><stop offset="0.1653" stop-color="#767BAC"/><stop offset="0.3252" stop-color="#373C6F"/><stop offset="0.4414" stop-color="#101648"/><stop offset="0.5019" stop-color="#01073A"/><stop offset="0.56" stop-color="#070D40"/><stop offset="0.6348" stop-color="#171D4F"/><stop offset="0.7187" stop-color="#313769"/><stop offset="0.8093" stop-color="#565C8D"/><stop offset="0.9046" stop-color="#858BBB"/><stop offset="1" stop-color="#BCC1F1"/></linearGradient><clipPath id="clip0_151_164"><rect width="387" height="476" fill="white"/></clipPath></defs></svg>
